<svg width="25" height="25" viewBox="0 0 25 25" fill="none" xmlns="http://www.w3.org/2000/svg">
<path d="M24.4428 5.74306C24.7372 5.74306 24.9762 5.50412 24.9762 5.20972V0.943007C24.9762 0.648604 24.7372 0.409668 24.4428 0.409668H1.50925C1.21485 0.409668 0.97591 0.648604 0.97591 0.943007V5.20972C0.97591 5.50412 1.21485 5.74306 1.50925 5.74306H12.4424V7.94441L11.9342 7.44867C11.7232 7.24307 11.3856 7.24734 11.1798 7.45827C10.9741 7.66921 10.9784 8.00681 11.1894 8.21268L12.6038 9.5919C12.7072 9.6927 12.8416 9.7431 12.976 9.7431C13.1104 9.7431 13.2448 9.6927 13.3483 9.59163L14.7627 8.21241C14.9737 8.00681 14.9779 7.66894 14.7718 7.45801C14.5662 7.24734 14.2286 7.24307 14.0179 7.44841L13.5091 7.94468V5.74306H24.4428ZM2.04259 1.47635H23.9095V4.67638H2.04259V1.47635Z" fill="#A3A3A3"/>
<path d="M0.97583 10.2763V14.543C0.97583 14.8374 1.21477 15.0763 1.50917 15.0763H5.32334V17.2777L4.81507 16.7822C4.60413 16.5766 4.26653 16.5811 4.06066 16.7915C3.85506 17.0025 3.85933 17.3406 4.07026 17.5457L5.48468 18.9249C5.58815 19.0259 5.72255 19.0763 5.85695 19.0763C5.99135 19.0763 6.12575 19.0259 6.22922 18.9249L7.64363 17.5457C7.85457 17.3401 7.85884 17.0025 7.65323 16.7915C7.44736 16.5811 7.10976 16.5758 6.89883 16.7822L6.39002 17.2782V15.0763H24.4427C24.7371 15.0763 24.9761 14.8374 24.9761 14.543V10.2763C24.9761 9.98186 24.7371 9.74292 24.4427 9.74292H12.976H1.50917C1.21477 9.74292 0.97583 9.98186 0.97583 10.2763ZM2.04251 10.8096H23.9094V14.0096H2.04251V10.8096Z" fill="#A3A3A3"/>
<path d="M0.97583 19.6098V23.8765C0.97583 24.1709 1.21477 24.4098 1.50917 24.4098H10.3093C10.6037 24.4098 10.8426 24.1709 10.8426 23.8765V22.3578H13.3106L12.8149 22.8661C12.6093 23.077 12.6136 23.4151 12.8245 23.6202C12.9282 23.7215 13.0626 23.7717 13.1968 23.7717C13.3357 23.7717 13.4741 23.7178 13.5786 23.6106L14.9578 22.1962C15.0589 22.093 15.1093 21.9588 15.1093 21.8242C15.1093 21.6898 15.0589 21.5554 14.9578 21.4519L13.5786 20.0372C13.3733 19.8268 13.0354 19.8218 12.8245 20.0279C12.6136 20.2335 12.6093 20.5711 12.8149 20.782L13.3112 21.2908H10.8426V19.6098C10.8426 19.3154 10.6037 19.0764 10.3093 19.0764H5.85695H1.50917C1.21477 19.0764 0.97583 19.3154 0.97583 19.6098ZM2.04251 20.1431H9.77592V23.3431H2.04251V20.1431Z" fill="#A3A3A3"/>
<path d="M15.6428 24.4098H24.4429C24.7373 24.4098 24.9762 24.1709 24.9762 23.8765V19.6098C24.9762 19.3154 24.7373 19.0764 24.4429 19.0764H15.6428C15.3484 19.0764 15.1094 19.3154 15.1094 19.6098V21.8242V23.8765C15.1094 24.1709 15.3484 24.4098 15.6428 24.4098ZM16.1761 20.1431H23.9095V23.3431H16.1761V20.1431Z" fill="#A3A3A3"/>
</svg>
