<svg width="26" height="25" viewBox="0 0 26 25" fill="none" xmlns="http://www.w3.org/2000/svg">
<path d="M25.0241 14.4474C24.4647 12.3963 23.1595 10.6916 21.3215 9.62609C21.0551 9.49291 20.8154 9.35972 20.549 9.22654C20.5757 8.93353 20.6023 8.66716 20.6023 8.37415C20.5757 3.97904 17.0329 0.409668 12.6378 0.409668C8.24269 0.409668 4.69996 3.97904 4.69996 8.34752C4.69996 8.64052 4.7266 8.93353 4.75324 9.1999C4.48687 9.30645 4.2205 9.43964 3.98076 9.59946C2.1428 10.6649 0.837588 12.3697 0.278209 14.4208C-0.281169 16.4718 0.0118387 18.6028 1.07732 20.4407C2.54236 22.9979 5.23271 24.4097 7.97632 24.4097C9.33482 24.4097 10.6933 24.0634 11.9452 23.3442C12.185 23.211 12.4247 23.0512 12.6644 22.8647C12.9042 23.0245 13.1439 23.1844 13.3836 23.3442C14.6356 24.0634 15.9941 24.4097 17.3526 24.4097C20.0962 24.4097 22.7865 22.9713 24.2516 20.4407C25.2904 18.6294 25.5568 16.4985 25.0241 14.4474ZM5.92527 8.34752C5.92527 4.64496 8.93526 1.63497 12.6378 1.63497C16.3404 1.63497 19.3504 4.64496 19.3504 8.34752C19.3504 8.50734 19.3504 8.64052 19.3237 8.80035C17.0063 8.18769 14.529 8.6938 12.6378 10.0789C11.8653 9.49291 10.9597 9.06672 10.0007 8.80035C8.64225 8.42743 7.25712 8.45406 5.95191 8.80035C5.92527 8.64052 5.92527 8.50734 5.92527 8.34752ZM14.4225 18.2299C14.1029 19.4019 13.4902 20.4407 12.6378 21.2931C11.7854 20.4674 11.1728 19.4285 10.8531 18.2299C10.6667 17.5107 10.5868 16.7648 10.64 16.0456C11.2793 16.2055 11.9452 16.312 12.6378 16.312C13.3304 16.312 13.9963 16.2055 14.6356 16.0456C14.6889 16.7648 14.609 17.5107 14.4225 18.2299ZM12.6378 15.0601C12.0252 15.0601 11.4125 14.9801 10.8265 14.8203C10.9863 14.2343 11.1994 13.6749 11.5191 13.1422C11.8387 12.6094 12.2116 12.13 12.6378 11.7038C13.064 12.13 13.4369 12.6094 13.7566 13.1422C14.0762 13.6749 14.2893 14.2343 14.4491 14.8203C13.8631 14.9801 13.2505 15.0601 12.6378 15.0601ZM9.6811 14.3675C7.94969 13.5151 6.64447 11.9169 6.13837 10.0257C6.72438 9.86583 7.3104 9.78592 7.92305 9.78592C8.50907 9.78592 9.09508 9.86583 9.6811 10.0257C10.4003 10.2121 11.0662 10.5318 11.6789 10.9313C11.226 11.4108 10.7999 11.9435 10.4536 12.5295C10.1073 13.1156 9.86756 13.7282 9.6811 14.3675ZM14.8221 12.5295C14.4758 11.9435 14.0762 11.4108 13.5967 10.9313C14.7155 10.1855 16.0207 9.78592 17.3259 9.78592C17.912 9.78592 18.5246 9.86583 19.1106 10.0257C18.6045 11.9435 17.2993 13.5151 15.5679 14.3675C15.4081 13.7282 15.1683 13.1156 14.8221 12.5295ZM11.306 22.3053C8.10951 24.1699 3.98076 23.0512 2.1428 19.8547C1.23714 18.3098 0.99741 16.4985 1.45024 14.767C1.90307 13.0356 3.02183 11.5972 4.56678 10.6916C4.69996 10.6117 4.83315 10.5584 4.96633 10.5051C5.63226 12.7959 7.28376 14.6605 9.44136 15.6194C9.33481 16.5784 9.41473 17.5639 9.65446 18.5495C10.0274 19.908 10.7199 21.1067 11.6789 22.0656C11.5457 22.1455 11.4391 22.2254 11.306 22.3053ZM23.1595 19.8547C21.3215 23.0512 17.1928 24.1699 13.9963 22.3053C13.8631 22.2254 13.7566 22.1455 13.6234 22.0656C14.5823 21.1067 15.2749 19.908 15.6478 18.5495C15.9142 17.5906 15.9674 16.605 15.8609 15.6194C18.0185 14.6605 19.67 12.7693 20.3093 10.4785C20.4425 10.5318 20.5757 10.6117 20.7088 10.6649C22.2538 11.5706 23.3726 13.009 23.8254 14.7404C24.2782 16.4718 24.0385 18.3098 23.1595 19.8547Z" fill="#A3A3A3"/>
</svg>
