<svg width="12" height="15" viewBox="0 0 12 15" fill="none" xmlns="http://www.w3.org/2000/svg">
<path fill-rule="evenodd" clip-rule="evenodd" d="M11.8563 5.04352V13.3382C11.8563 13.6132 11.7471 13.8769 11.5526 14.0713C11.3582 14.2658 11.0945 14.375 10.8195 14.375H1.488C1.21302 14.375 0.949311 14.2658 0.754868 14.0713C0.560424 13.8769 0.451172 13.6132 0.451172 13.3382V1.41461C0.451172 1.13962 0.560424 0.875902 0.754868 0.681458C0.949311 0.487015 1.21302 0.377778 1.488 0.377778H8.19627C8.27458 0.369792 8.35374 0.379074 8.42808 0.404959C8.50242 0.430843 8.57018 0.472704 8.6266 0.527601L11.6905 3.59196C11.744 3.64613 11.7851 3.71125 11.8111 3.78284C11.837 3.85443 11.8471 3.9308 11.8407 4.00669H11.8563V5.04352H7.70899C7.5715 5.04352 7.43961 4.98889 7.34239 4.89167C7.24517 4.79445 7.19058 4.6626 7.19058 4.5251V1.41461H1.488V13.3382H10.8195V5.04352H11.8563ZM8.22741 1.66241V4.00669H10.5707L8.22741 1.66241Z" fill="#909090"/>
</svg>
