<svg width="27" height="25" viewBox="0 0 27 25" fill="none" xmlns="http://www.w3.org/2000/svg">
<path d="M0.909521 0.00689739C0.412451 0.00689739 0.00952148 0.409842 0.00952148 0.906897C0.00952148 1.40395 0.412451 1.8069 0.909521 1.8069H3.77827L6.87202 16.4038C6.99442 16.9532 7.35454 17.4106 7.80952 17.4069H22.8095C23.285 17.4135 23.7223 16.9824 23.7223 16.5069C23.7223 16.0314 23.285 15.6002 22.8095 15.6069H8.54077L8.15638 13.8069H24.0095C24.4125 13.8039 24.7932 13.497 24.8814 13.1038L26.9814 4.10377C27.0984 3.58145 26.6448 3.01073 26.1095 3.0069H5.87827L5.39077 0.719397C5.3056 0.319767 4.91812 0.00647739 4.50952 0.00689739H0.909521ZM6.25327 4.80689H24.9752L23.297 12.0069H7.78138L6.25327 4.80689ZM10.8095 18.0069C9.16333 18.0069 7.80952 19.3607 7.80952 21.0069C7.80952 22.6531 9.16333 24.0069 10.8095 24.0069C12.4557 24.0069 13.8095 22.6531 13.8095 21.0069C13.8095 19.3607 12.4557 18.0069 10.8095 18.0069ZM19.8095 18.0069C18.1633 18.0069 16.8095 19.3607 16.8095 21.0069C16.8095 22.6531 18.1633 24.0069 19.8095 24.0069C21.4557 24.0069 22.8095 22.6531 22.8095 21.0069C22.8095 19.3607 21.4557 18.0069 19.8095 18.0069ZM10.8095 19.8069C11.4829 19.8069 12.0095 20.3335 12.0095 21.0069C12.0095 21.6803 11.4829 22.2069 10.8095 22.2069C10.1362 22.2069 9.60952 21.6803 9.60952 21.0069C9.60952 20.3335 10.1362 19.8069 10.8095 19.8069ZM19.8095 19.8069C20.4829 19.8069 21.0095 20.3335 21.0095 21.0069C21.0095 21.6803 20.4829 22.2069 19.8095 22.2069C19.1362 22.2069 18.6095 21.6803 18.6095 21.0069C18.6095 20.3335 19.1362 19.8069 19.8095 19.8069Z" fill="white"/>
</svg>
