<svg width="21" height="21" viewBox="0 0 21 21" fill="none" xmlns="http://www.w3.org/2000/svg">
<path d="M10.6727 0.725098C5.08112 0.725098 0.535278 5.27094 0.535278 10.8625C0.535278 16.4542 5.08112 21 10.6727 21C16.2643 21 20.8102 16.4542 20.8102 10.8625C20.8102 5.27094 16.2643 0.725098 10.6727 0.725098ZM16.243 14.6187C16.0509 15.0883 15.7094 15.5578 15.496 15.7712C14.2795 16.9877 11.0142 15.8993 8.32511 13.2102C5.63602 10.5211 4.54757 7.27709 5.76407 6.03926C5.97749 5.82584 6.46836 5.48436 6.91654 5.29229C7.25801 5.14289 7.66351 5.2496 7.89827 5.54839L9.24282 7.25575C9.52026 7.59722 9.47758 8.10943 9.1361 8.40822C8.79463 8.70701 8.55987 8.92043 8.49584 8.98445C7.98364 9.49666 8.73061 10.5851 9.86173 11.7162C10.9929 12.8474 12.06 13.6157 12.5935 13.0821C12.6575 13.0181 12.871 12.7833 13.1697 12.4419C13.4685 12.1004 13.9594 12.0577 14.3222 12.3351L16.0296 13.6797C16.307 13.8504 16.3924 14.2559 16.243 14.6187Z" fill="white"/>
</svg>
