<svg width="32" height="32" viewBox="0 0 32 32" fill="none" xmlns="http://www.w3.org/2000/svg">
<path d="M21.3555 0.09375H9.70703C4.34681 0.09375 0 4.44056 0 9.80078V21.4492C0 26.8094 4.34681 31.1562 9.70703 31.1562H21.3555C26.7157 31.1562 31.0625 26.8094 31.0625 21.4492V9.80078C31.0625 4.44056 26.7157 0.09375 21.3555 0.09375ZM28.1504 21.4492C28.1504 25.1961 25.1024 28.2441 21.3555 28.2441H9.70703C5.96012 28.2441 2.91211 25.1961 2.91211 21.4492V9.80078C2.91211 6.05387 5.96012 3.00586 9.70703 3.00586H21.3555C25.1024 3.00586 28.1504 6.05387 28.1504 9.80078V21.4492Z" fill="#393B40"/>
<path d="M15.5312 7.85938C11.2427 7.85938 7.76562 11.3364 7.76562 15.625C7.76562 19.9136 11.2427 23.3906 15.5312 23.3906C19.8198 23.3906 23.2969 19.9136 23.2969 15.625C23.2969 11.3364 19.8198 7.85938 15.5312 7.85938ZM15.5312 20.4785C12.856 20.4785 10.6777 18.3003 10.6777 15.625C10.6777 12.9478 12.856 10.7715 15.5312 10.7715C18.2065 10.7715 20.3848 12.9478 20.3848 15.625C20.3848 18.3003 18.2065 20.4785 15.5312 20.4785Z" fill="#393B40"/>
<path d="M23.8793 8.31171C24.4508 8.31171 24.9141 7.84843 24.9141 7.27694C24.9141 6.70546 24.4508 6.24218 23.8793 6.24218C23.3078 6.24218 22.8445 6.70546 22.8445 7.27694C22.8445 7.84843 23.3078 8.31171 23.8793 8.31171Z" fill="#393B40"/>
</svg>
