<svg width="657" height="36" viewBox="0 0 657 36" fill="none" xmlns="http://www.w3.org/2000/svg">
<path opacity="0.5" d="M11.496 35V33.272H2.376V0.823999H0.456V35H11.496ZM78.4796 35L71.2796 0.823999H69.5516L62.2076 35H64.3196L66.3356 24.728H74.3036L76.3676 35H78.4796ZM73.9676 23H66.7196L70.3196 4.76L73.9676 23ZM149.216 35V0.823999H147.104L139.664 21.704L132.224 0.823999H130.112V35H132.032V5.96L138.752 24.776H140.48L147.296 5.288V35H149.216ZM217.088 10.04C217.088 1.736 213.536 0.823999 210.176 0.823999H204.128V35H206.048V19.256H210.176C213.44 19.256 217.088 18.248 217.088 10.04ZM215.168 10.04C215.168 16.616 212.816 17.528 210.032 17.528H206.048V2.552H210.032C212.816 2.552 215.168 3.464 215.168 10.04ZM330.454 35V0.823999H328.534V35H330.454ZM399.459 35V0.823999H397.539V29.72L387.459 0.823999H385.347V35H387.267V6.104L397.347 35H399.459ZM466.826 26.264C466.826 21.608 466.202 18.776 462.65 17.336L459.146 15.896C455.738 14.504 455.162 13.16 455.162 8.84C455.162 6.536 455.642 4.568 456.842 3.416C457.61 2.696 458.618 2.264 460.058 2.264C461.594 2.264 462.698 2.744 463.466 3.608C464.57 4.856 464.906 6.296 464.906 8.648H466.826C466.826 5.816 466.538 3.992 464.906 2.312C463.754 1.16 462.122 0.535997 460.106 0.535997C458.09 0.535997 456.554 1.16 455.402 2.312C453.962 3.752 453.242 6.008 453.242 8.888C453.242 13.976 454.154 15.944 457.658 17.384L461.162 18.824C464.186 20.072 464.906 21.8 464.906 26.312C464.906 29.288 464.666 30.968 463.37 32.264C462.65 33.032 461.546 33.512 459.866 33.512C458.33 33.512 457.178 33.032 456.41 32.264C455.258 31.112 454.922 29.624 454.922 26.696H453.002C453.002 30.488 453.482 32.072 454.97 33.608C456.17 34.808 457.802 35.288 459.866 35.288C462.074 35.288 463.609 34.712 464.714 33.608C466.202 32.072 466.826 29.912 466.826 26.264ZM522.548 35V0.823999H520.628V35H522.548ZM590.736 17.912C590.736 6.248 590.4 4.52 588.384 2.456C587.328 1.4 585.744 0.823999 583.872 0.823999H577.44V35H583.872C585.744 35 587.328 34.424 588.384 33.368C590.4 31.304 590.736 29.576 590.736 17.912ZM588.816 17.912C588.816 29.048 588.576 30.536 586.944 32.168C586.224 32.888 585.12 33.272 583.728 33.272H579.36V2.552H583.728C585.12 2.552 586.224 2.936 586.944 3.656C588.576 5.288 588.816 6.776 588.816 17.912ZM656.027 35V33.272H646.907V18.776H654.779V17.048H646.907V2.552H656.027V0.823999H644.987V35H656.027Z" fill="#CDD8F3"/>
</svg>
