<svg width="678" height="53" viewBox="0 0 678 53" fill="none" xmlns="http://www.w3.org/2000/svg">
<path d="M24.588 51.9167V0.652656H18.9L6.3 36.2927V0.652656H0.108V51.9167H5.868L18.396 16.3487V51.9167H24.588ZM67.5557 6.19665V0.652656H48.1877V51.9167H54.3797V6.19665H67.5557ZM112.01 15.6287C112.01 4.25265 107.618 0.652656 99.8421 0.652656H88.3221V51.9167H94.5141V30.5327H99.8421C107.474 30.5327 112.01 26.8607 112.01 15.6287ZM105.818 15.6287C105.818 22.4687 103.802 24.9887 99.6261 24.9887H94.5141V6.19665H99.6261C103.802 6.19665 105.818 8.71665 105.818 15.6287ZM155.985 51.9167L144.105 0.652656H138.129L126.177 51.9167H132.657L135.105 39.8207H146.985L149.433 51.9167H155.985ZM145.833 34.2767H136.257L141.081 10.6607L145.833 34.2767ZM226.283 39.2447H220.163C220.091 41.4047 219.659 43.6367 218.507 45.1487C217.715 46.1567 216.419 46.9487 214.475 46.9487C212.459 46.9487 211.091 46.1567 210.227 45.0047C208.427 42.5567 208.139 38.4527 208.139 26.2847C208.139 14.1167 208.427 10.0127 210.227 7.56465C211.091 6.41265 212.459 5.62066 214.475 5.62066C216.419 5.62066 217.715 6.41265 218.507 7.42065C219.73 8.93266 220.091 11.0927 220.163 13.2527H226.283C226.211 9.07665 224.987 5.40465 222.611 3.10065C220.595 1.15665 218.075 0.0766544 214.475 0.0766544C210.443 0.0766544 207.635 1.58865 205.691 3.82065C202.307 7.70865 201.947 12.1007 201.947 26.2847C201.947 40.4687 202.307 44.8607 205.691 48.7487C207.635 50.9807 210.443 52.4927 214.475 52.4927C217.859 52.4927 220.379 51.4847 222.395 49.6847C224.915 47.3807 226.211 43.5647 226.283 39.2447ZM271.776 37.5167C271.776 33.1247 271.344 29.6687 268.68 27.0767C267.816 26.2847 266.664 25.5647 265.512 25.2047C266.52 24.7727 267.528 24.1247 268.392 23.2607C270.912 20.8127 271.416 17.7887 271.416 14.1167C271.416 8.57265 270.624 6.05265 268.392 3.74865C266.304 1.58865 263.568 0.652656 259.032 0.652656H248.016V51.9167H259.032C263.568 51.9167 266.376 50.9807 268.464 48.8207C270.768 46.4447 271.776 43.7087 271.776 37.5167ZM265.584 37.1567C265.584 44.2127 263.352 46.3727 258.672 46.3727H254.208V27.9407H258.672C263.28 27.9407 265.584 30.5327 265.584 37.1567ZM265.224 14.4047C265.224 20.2367 263.136 22.6127 258.744 22.6127H254.208V6.19665H258.744C263.208 6.19665 265.224 8.21265 265.224 14.4047ZM314.208 51.9167V46.3727H300.6V28.9487H312.336V23.4047H300.6V6.19665H314.208V0.652656H294.408V51.9167H314.208ZM356.464 6.19665V0.652656H333.064V6.19665H341.704V51.9167H347.896V6.19665H356.464ZM400.026 51.9167L388.146 0.652656H382.17L370.218 51.9167H376.698L379.146 39.8207H391.026L393.474 51.9167H400.026ZM389.874 34.2767H380.298L385.122 10.6607L389.874 34.2767ZM471.691 51.9167V0.652656H466.003L453.403 36.2927V0.652656H447.211V51.9167H452.971L465.499 16.3487V51.9167H471.691ZM543.425 6.19665V0.652656H520.025V6.19665H528.665V51.9167H534.857V6.19665H543.425ZM583.758 51.9167V46.3727H570.15V28.9487H581.886V23.4047H570.15V6.19665H583.758V0.652656H563.958V51.9167H583.758ZM629.47 51.9167V0.652656H623.278V23.0447H611.902V0.652656H605.71V51.9167H611.902V28.6607H623.278V51.9167H629.47ZM677.566 51.9167V0.652656H671.878L659.278 36.2927V0.652656H653.086V51.9167H658.846L671.374 16.3487V51.9167H677.566Z" fill="url(#paint0_linear)"/>
<defs>
<linearGradient id="paint0_linear" x1="-4.5" y1="30.9999" x2="682.5" y2="25.4166" gradientUnits="userSpaceOnUse">
<stop stop-color="white" stop-opacity="0.4"/>
<stop offset="0.494792" stop-color="white"/>
<stop offset="1" stop-color="white" stop-opacity="0.4"/>
</linearGradient>
</defs>
</svg>
