<svg width="21" height="20" viewBox="0 0 21 20" fill="none" xmlns="http://www.w3.org/2000/svg">
<path d="M17.1031 2.928C15.2171 1.041 12.7091 0.001 10.0371 0C4.53112 0 0.0501231 4.479 0.0481231 9.985C0.0471231 11.745 0.507123 13.463 1.38112 14.977L0.026123 20L5.25912 18.763C6.71812 19.559 8.36012 19.978 10.0321 19.979H10.0361C15.5411 19.979 20.0221 15.499 20.0251 9.994C20.0271 7.325 18.9891 4.816 17.1031 2.928ZM14.9241 13.554C14.7161 14.137 13.6971 14.699 13.2391 14.74C12.7811 14.782 12.3521 14.947 10.2441 14.116C7.70712 13.116 6.10512 10.515 5.98112 10.349C5.85612 10.182 4.96212 8.996 4.96212 7.768C4.96212 6.54 5.60712 5.936 5.83612 5.687C6.06512 5.437 6.33512 5.375 6.50212 5.375C6.66812 5.375 6.83512 5.375 6.98012 5.381C7.15812 5.388 7.35512 5.397 7.54212 5.812C7.76412 6.306 8.24912 7.54 8.31112 7.665C8.37312 7.79 8.41512 7.936 8.33212 8.102C8.24912 8.268 8.20712 8.372 8.08312 8.518C7.95812 8.664 7.82112 8.843 7.70912 8.955C7.58412 9.079 7.45412 9.215 7.59912 9.464C7.74512 9.714 8.24512 10.531 8.98712 11.192C9.94112 12.042 10.7441 12.305 10.9941 12.431C11.2441 12.556 11.3891 12.535 11.5351 12.368C11.6811 12.202 12.1591 11.64 12.3251 11.39C12.4911 11.14 12.6581 11.182 12.8871 11.265C13.1161 11.348 14.3431 11.952 14.5921 12.077C14.8421 12.202 15.0081 12.264 15.0701 12.368C15.1321 12.471 15.1321 12.971 14.9241 13.554Z" fill="white"/>
</svg>
