<svg width="23" height="20" viewBox="0 0 23 20" fill="none" xmlns="http://www.w3.org/2000/svg">
<path d="M21.5944 0.274942C21.2194 -0.0430594 20.6304 -0.0885595 20.0214 0.155941H20.0204C19.3799 0.412942 1.8898 7.91496 1.1778 8.22147C1.0483 8.26647 -0.0827053 8.68847 0.0337951 9.62847C0.137795 10.476 1.0468 10.827 1.1578 10.8675L5.60431 12.39C5.89931 13.372 6.98682 16.995 7.22732 17.769C7.37732 18.2515 7.62182 18.8855 8.05032 19.016C8.42632 19.161 8.80032 19.0285 9.04232 18.8385L11.7608 16.317L16.1493 19.7395L16.2538 19.802C16.5518 19.934 16.8373 20 17.1098 20C17.3203 20 17.5223 19.9605 17.7153 19.8815C18.3729 19.6115 18.6359 18.985 18.6634 18.914L21.9414 1.87545C22.1414 0.965444 21.8634 0.502442 21.5944 0.274942ZM9.52582 12.999L8.02582 16.999L6.52581 11.999L18.0258 3.49895L9.52582 12.999Z" fill="white"/>
</svg>
