<svg width="20" height="20" viewBox="0 0 20 20" fill="none" xmlns="http://www.w3.org/2000/svg">
<path d="M10.2371 0.126953C7.64777 0.126953 5.16453 1.15555 3.33362 2.98645C1.50271 4.81736 0.474121 7.3006 0.474121 9.88989C0.474121 12.4792 1.50271 14.9624 3.33362 16.7933C5.16453 18.6242 7.64777 19.6528 10.2371 19.6528C12.8264 19.6528 15.3096 18.6242 17.1405 16.7933C18.9714 14.9624 20 12.4792 20 9.88989C20 7.3006 18.9714 4.81736 17.1405 2.98645C15.3096 1.15555 12.8264 0.126953 10.2371 0.126953Z" fill="#29B6F6"/>
<path d="M15.0942 5.49645L13.2656 14.8328C13.2656 14.8328 13.187 15.2594 12.6579 15.2594C12.3767 15.2594 12.2317 15.1256 12.2317 15.1256L8.27088 11.8389L6.33293 10.8622L3.84583 10.2007C3.84583 10.2007 3.40308 10.0728 3.40308 9.70672C3.40308 9.40163 3.85852 9.25616 3.85852 9.25616L14.2639 5.12253C14.2634 5.12204 14.5816 5.00781 14.8135 5.0083C14.956 5.0083 15.1186 5.06932 15.1186 5.25238C15.1186 5.37441 15.0942 5.49645 15.0942 5.49645Z" fill="white"/>
<path d="M9.74892 13.0651L8.07652 14.7121C8.07652 14.7121 8.00379 14.7682 7.90665 14.7707C7.87297 14.7717 7.83684 14.7663 7.79974 14.7497L8.27032 11.8379L9.74892 13.0651Z" fill="#B0BEC5"/>
<path d="M13.1156 7.05705C13.0331 6.94966 12.8808 6.93013 12.7734 7.01165L6.33185 10.8666C6.33185 10.8666 7.35989 13.7427 7.51658 14.2406C7.67376 14.739 7.79971 14.7507 7.79971 14.7507L8.27028 11.8389L13.0697 7.39875C13.1771 7.31723 13.1971 7.16444 13.1156 7.05705Z" fill="#CFD8DC"/>
</svg>
