<svg width="19" height="19" viewBox="0 0 19 19" fill="none" xmlns="http://www.w3.org/2000/svg">
<path d="M16.1636 3.51967C14.4618 1.81676 12.1998 0.878501 9.79223 0.87793C4.82169 0.87793 0.77914 4.91877 0.776856 9.88588C0.776285 11.5882 1.25255 13.2454 2.15483 14.6805L2.36955 15.0214L1.4587 18.3456L4.86966 17.4513L5.19917 17.6466C6.58228 18.4678 8.1687 18.9018 9.78595 18.9024H9.78937C14.7565 18.9024 18.799 14.861 18.8007 9.8933C18.8013 7.48627 17.8653 5.22258 16.1636 3.51967Z" fill="#40C351"/>
<path fill-rule="evenodd" clip-rule="evenodd" d="M7.0791 5.35445C6.87637 4.90331 6.66279 4.89417 6.4692 4.88618C6.31102 4.87932 6.13056 4.87989 5.95011 4.87989C5.76965 4.87989 5.47612 4.94785 5.22771 5.21911C4.9793 5.49036 4.27917 6.14537 4.27917 7.47823C4.27917 8.81109 5.24998 10.0994 5.38532 10.2799C5.52067 10.4603 7.25955 13.2831 10.0132 14.3692C12.3015 15.2715 12.7675 15.0922 13.2643 15.0471C13.7611 15.002 14.8673 14.3921 15.0928 13.7594C15.3184 13.1266 15.3184 12.5847 15.251 12.4716C15.1831 12.3585 15.0026 12.2912 14.7319 12.1552C14.4612 12.0193 13.1289 11.3643 12.8805 11.2741C12.6321 11.1839 12.4517 11.1387 12.2706 11.41C12.0902 11.6807 11.5711 12.2912 11.4129 12.4716C11.2547 12.6526 11.0965 12.6755 10.8258 12.5396C10.5552 12.4037 9.68257 12.1181 8.64724 11.1953C7.84204 10.4775 7.29839 9.59059 7.1402 9.31934C6.98202 9.04866 7.12307 8.90189 7.25898 8.76655C7.38062 8.64491 7.52967 8.45018 7.66558 8.292C7.80092 8.13381 7.84603 8.02074 7.93626 7.84029C8.02649 7.65926 7.98138 7.50107 7.91342 7.36573C7.84661 7.22982 7.32009 5.89011 7.0791 5.35445Z" fill="white"/>
</svg>
