<svg width="12" height="15" viewBox="0 0 12 15" fill="none" xmlns="http://www.w3.org/2000/svg">
<path fill-rule="evenodd" clip-rule="evenodd" d="M9.4375 5.74658H10.25C10.9375 5.74658 11.4375 6.24658 11.4375 6.93408V13.7466C11.4375 14.3716 10.9375 14.9341 10.25 14.9341H1.1875C0.5 14.9341 0 14.3716 0 13.7466V6.93408C0 6.24658 0.5 5.74658 1.1875 5.74658H2V4.68408C2 2.62158 3.625 0.934082 5.75 0.934082C7.8125 0.934082 9.4375 2.62158 9.4375 4.68408V5.74658ZM5.75 8.93408C6.3125 8.93408 6.75 9.37158 6.75 9.93408C6.75 10.2466 6.625 10.4966 6.375 10.6841V11.6216C6.375 12.4966 5.0625 12.4966 5.0625 11.6216V10.6841C4.875 10.4966 4.6875 10.2466 4.6875 9.93408C4.6875 9.37158 5.125 8.93408 5.75 8.93408ZM3.25 5.74658H8.1875V4.68408C8.1875 3.30908 7.125 2.18408 5.75 2.18408C4.3125 2.18408 3.25 3.30908 3.25 4.68408V5.74658Z" fill="#BBBBBB"/>
</svg>
