<svg width="67" height="16" viewBox="0 0 67 16" fill="none" xmlns="http://www.w3.org/2000/svg">
<path d="M66.5796 12.4811V12.205H66.5077L66.4244 12.3946L66.3416 12.205H66.2692V12.4811H66.3203V12.2729L66.3982 12.4526H66.4511L66.529 12.2724V12.4811H66.5796ZM66.123 12.4811V12.2521H66.2153V12.2055H65.98V12.2521H66.0723V12.4811H66.123Z" fill="#F79410"/>
<path d="M58.3971 13.6686H52.1689V2.47552H58.3971V13.6686Z" fill="#FF5F00"/>
<path d="M52.568 8.07124C52.568 5.80068 53.6311 3.77813 55.2866 2.47472C54.076 1.5216 52.5481 0.952713 50.8876 0.952713C46.9566 0.952713 43.77 4.13973 43.77 8.07124C43.77 12.0027 46.9566 15.1898 50.8876 15.1898C52.5481 15.1898 54.076 14.6209 55.2866 13.6678C53.6311 12.3643 52.568 10.3418 52.568 8.07124Z" fill="#EB001B"/>
<path d="M66.7969 8.07124C66.7969 12.0027 63.6103 15.1898 59.6792 15.1898C58.0188 15.1898 56.4909 14.6209 55.2798 13.6678C56.9358 12.3643 57.9988 10.3418 57.9988 8.07124C57.9988 5.80068 56.9358 3.77813 55.2798 2.47472C56.4909 1.5216 58.0188 0.952713 59.6792 0.952713C63.6103 0.952713 66.7969 4.13973 66.7969 8.07124Z" fill="#F79E1B"/>
<path d="M14.5074 13.292H11.8916L13.5277 3.17542H16.1434L14.5074 13.292Z" fill="#5973CF"/>
<path d="M23.9903 3.42289C23.4744 3.2182 22.656 2.99219 21.6441 2.99219C19.0609 2.99219 17.2418 4.36969 17.2307 6.33911C17.2092 7.79215 18.5331 8.59919 19.5232 9.08368C20.5353 9.57875 20.8793 9.90189 20.8793 10.3432C20.869 11.0209 20.0615 11.3333 19.3084 11.3333C18.264 11.3333 17.7044 11.1723 16.8541 10.7952L16.5096 10.6336L16.1436 12.9045C16.7571 13.184 17.8874 13.4321 19.0609 13.4429C21.8056 13.4429 23.5925 12.0867 23.6137 9.988C23.6241 8.83636 22.9251 7.95393 21.418 7.23285C20.5031 6.76996 19.9428 6.45784 19.9428 5.98422C19.9535 5.55366 20.4167 5.11266 21.4495 5.11266C22.2998 5.09106 22.9247 5.29547 23.398 5.50002L23.6346 5.60745L23.9903 3.42289Z" fill="#5973CF"/>
<path d="M27.467 9.70806C27.6825 9.12687 28.5114 6.87752 28.5114 6.87752C28.5005 6.89912 28.7264 6.2856 28.8556 5.90897L29.0384 6.78068C29.0384 6.78068 29.5337 9.20225 29.6413 9.70806C29.2325 9.70806 27.9837 9.70806 27.467 9.70806ZM30.696 3.17542H28.6726C28.0487 3.17542 27.5746 3.35822 27.3054 4.01479L23.4199 13.2919H26.1646C26.1646 13.2919 26.6165 12.0432 26.7136 11.7743C27.0147 11.7743 29.6848 11.7743 30.0721 11.7743C30.1472 12.1295 30.3843 13.2919 30.3843 13.2919H32.8063L30.696 3.17542Z" fill="#5973CF"/>
<path d="M9.70679 3.17542L7.14503 10.074L6.8651 8.67485C6.39148 7.06047 4.90612 5.30647 3.24854 4.43434L5.59502 13.2813H8.36119L12.4728 3.17542H9.70679Z" fill="#5973CF"/>
<path d="M4.76632 3.17542H0.557704L0.514648 3.37982C3.79763 4.21934 5.97189 6.24298 6.86519 8.67528L5.95029 4.02581C5.79967 3.37968 5.33678 3.19673 4.76632 3.17542Z" fill="#FAA61A"/>
</svg>
