<svg width="24" height="25" viewBox="0 0 24 25" fill="none" xmlns="http://www.w3.org/2000/svg">
<path d="M24 23.1667L22.6667 24.5L15.7585 17.6727C14.0959 19.0236 11.9759 19.8333 9.66667 19.8333C4.32791 19.8333 0 15.5054 0 10.1667C0 4.82791 4.32791 0.5 9.66667 0.5C15.0054 0.5 19.3333 4.82791 19.3333 10.1667C19.3333 12.4759 18.5236 14.5959 17.1727 16.2585L24 23.1667ZM9.66667 17.8333C13.9009 17.8333 17.3333 14.4009 17.3333 10.1667C17.3333 5.93248 13.9009 2.5 9.66667 2.5C5.43248 2.5 2 5.93248 2 10.1667C2 14.4009 5.43248 17.8333 9.66667 17.8333Z" fill="white"/>
</svg>
