<svg width="21" height="21" viewBox="0 0 21 21" fill="none" xmlns="http://www.w3.org/2000/svg">
<path fill-rule="evenodd" clip-rule="evenodd" d="M16.2462 2.72022H4.06154C2.93998 2.72022 2.03077 3.62943 2.03077 4.75099V16.9356C2.03077 18.0572 2.93998 18.9664 4.06154 18.9664H16.2462C17.3677 18.9664 18.2769 18.0572 18.2769 16.9356V4.75099C18.2769 3.62943 17.3677 2.72022 16.2462 2.72022ZM4.06154 0.689453C1.81841 0.689453 0 2.50787 0 4.75099V16.9356C0 19.1787 1.81841 20.9971 4.06154 20.9971H16.2462C18.4893 20.9971 20.3077 19.1787 20.3077 16.9356V4.75099C20.3077 2.50787 18.4893 0.689453 16.2462 0.689453H4.06154Z" fill="white"/>
<path fill-rule="evenodd" clip-rule="evenodd" d="M10.1538 13.6864C11.6119 13.6864 12.7938 12.5044 12.7938 11.0464C12.7938 9.58834 11.6119 8.40638 10.1538 8.40638C8.69581 8.40638 7.51385 9.58834 7.51385 11.0464C7.51385 12.5044 8.69581 13.6864 10.1538 13.6864ZM10.1538 15.311C12.5091 15.311 14.4185 13.4017 14.4185 11.0464C14.4185 8.69109 12.5091 6.78176 10.1538 6.78176C7.79856 6.78176 5.88923 8.69109 5.88923 11.0464C5.88923 13.4017 7.79856 15.311 10.1538 15.311Z" fill="white"/>
<path d="M16.6523 5.46176C16.6523 6.07862 16.1522 6.57868 15.5354 6.57868C14.9185 6.57868 14.4185 6.07862 14.4185 5.46176C14.4185 4.8449 14.9185 4.34484 15.5354 4.34484C16.1522 4.34484 16.6523 4.8449 16.6523 5.46176Z" fill="white"/>
</svg>
