<svg width="22" height="21" viewBox="0 0 22 21" fill="none" xmlns="http://www.w3.org/2000/svg">
<path fill-rule="evenodd" clip-rule="evenodd" d="M17.0923 2.72022H4.90773C3.78617 2.72022 2.87696 3.62943 2.87696 4.75099V16.9356C2.87696 18.0572 3.78617 18.9664 4.90773 18.9664H17.0923C18.2139 18.9664 19.1231 18.0572 19.1231 16.9356V4.75099C19.1231 3.62943 18.2139 2.72022 17.0923 2.72022ZM4.90773 0.689453C2.6646 0.689453 0.846191 2.50787 0.846191 4.75099V16.9356C0.846191 19.1787 2.6646 20.9971 4.90773 20.9971H17.0923C19.3355 20.9971 21.1539 19.1787 21.1539 16.9356V4.75099C21.1539 2.50787 19.3355 0.689453 17.0923 0.689453H4.90773Z" fill="white"/>
<path d="M9.73917 16.1233V10.3197H8.82965V8.86158H9.73917V8.54397C9.73917 8.08199 9.81136 7.68257 9.95572 7.34571C10.1097 6.99923 10.2926 6.73455 10.5043 6.55169C10.7161 6.3592 10.9663 6.2052 11.255 6.08971C11.5534 5.97422 11.8181 5.90203 12.0491 5.87316C12.2801 5.83466 12.5159 5.81541 12.7565 5.81541C13.026 5.81541 13.2329 5.82985 13.3772 5.85872V7.4179C13.3003 7.39865 13.1751 7.38902 13.0019 7.38902C12.0491 7.38902 11.5726 7.78844 11.5726 8.58728V8.86158H13.1607V10.3197H11.5726V16.1233H9.73917Z" fill="white"/>
</svg>
