<svg width="21" height="21" viewBox="0 0 21 21" fill="none" xmlns="http://www.w3.org/2000/svg">
<path fill-rule="evenodd" clip-rule="evenodd" d="M16.9385 2.72022H4.75392C3.63236 2.72022 2.72315 3.62943 2.72315 4.75099V16.9356C2.72315 18.0572 3.63236 18.9664 4.75392 18.9664H16.9385C18.0601 18.9664 18.9693 18.0572 18.9693 16.9356V4.75099C18.9693 3.62943 18.0601 2.72022 16.9385 2.72022ZM4.75392 0.689453C2.5108 0.689453 0.692383 2.50787 0.692383 4.75099V16.9356C0.692383 19.1787 2.5108 20.9971 4.75392 20.9971H16.9385C19.1817 20.9971 21.0001 19.1787 21.0001 16.9356V4.75099C21.0001 2.50787 19.1817 0.689453 16.9385 0.689453H4.75392Z" fill="white"/>
<path fill-rule="evenodd" clip-rule="evenodd" d="M9.65635 7.89878C9.37868 7.73847 9.03159 7.93886 9.03159 8.25949V13.3094C9.03159 13.63 9.37868 13.8304 9.65635 13.6701L14.0297 11.1451C14.3073 10.9848 14.3073 10.584 14.0297 10.4237L9.65635 7.89878ZM14.8207 12.5153L10.4474 15.0402C9.11499 15.8095 7.44945 14.8479 7.44945 13.3094V8.25949C7.44945 6.72092 9.11499 5.75933 10.4474 6.52861L14.8207 9.05354C16.1532 9.82283 16.1532 11.746 14.8207 12.5153Z" fill="white"/>
</svg>
