<svg width="18" height="17" viewBox="0 0 18 17" fill="none" xmlns="http://www.w3.org/2000/svg">
<path d="M0.405969 8.6124C0.0268146 8.41706 0.0396262 8.12364 0.431279 7.95841L17.4543 0.776814C17.8475 0.610961 18.0796 0.813117 17.9747 1.2215L14.2152 15.8476C14.1095 16.259 13.7306 16.402 13.3802 16.1744L9.42447 13.6038C9.2461 13.4878 8.99408 13.5329 8.86683 13.6975L7.21535 15.8344C6.95499 16.1713 6.63109 16.1142 6.4943 15.714L4.97367 11.2653C4.90501 11.0645 4.69583 10.8225 4.50481 10.7241L0.405969 8.6124ZM5.00676 9.82442C5.38387 10.0187 5.8002 10.4998 5.93837 10.9041L6.97425 13.9346C7.04334 14.1368 7.20463 14.1644 7.33774 13.9922L8.3933 12.6264C8.65491 12.2879 9.15637 12.2015 9.51406 12.434L13.0584 14.7372C13.2378 14.8538 13.4269 14.7782 13.4793 14.5747L16.5554 2.60673C16.6085 2.40037 16.4886 2.30179 16.293 2.38432L2.50667 8.20042C2.30867 8.28395 2.30033 8.43007 2.48772 8.52661L5.00676 9.82442Z" fill="white"/>
</svg>
