<svg width="651" height="36" viewBox="0 0 651 36" fill="none" xmlns="http://www.w3.org/2000/svg">
<path opacity="0.2" d="M13.888 26.0349C13.888 21.3789 13.264 18.5469 9.712 17.1069L6.208 15.6669C2.8 14.2749 2.224 12.9309 2.224 8.61087C2.224 6.30687 2.704 4.33887 3.904 3.18687C4.672 2.46687 5.68 2.03487 7.12 2.03487C8.656 2.03487 9.76 2.51487 10.528 3.37887C11.632 4.62687 11.968 6.06687 11.968 8.41887H13.888C13.888 5.58687 13.6 3.76287 11.968 2.08287C10.816 0.930872 9.184 0.306871 7.168 0.306871C5.152 0.306871 3.616 0.930872 2.464 2.08287C1.024 3.52287 0.304 5.77887 0.304 8.65887C0.304 13.7469 1.216 15.7149 4.72 17.1549L8.224 18.5949C11.248 19.8429 11.968 21.5709 11.968 26.0829C11.968 29.0589 11.728 30.7389 10.432 32.0349C9.712 32.8029 8.608 33.2829 6.928 33.2829C5.392 33.2829 4.24 32.8029 3.472 32.0349C2.32 30.8829 1.984 29.3949 1.984 26.4669H0.0640001C0.0640001 30.2589 0.544 31.8429 2.032 33.3789C3.232 34.5789 4.864 35.0589 6.928 35.0589C9.136 35.0589 10.672 34.4829 11.776 33.3789C13.264 31.8429 13.888 29.6829 13.888 26.0349ZM80.9384 17.6829C80.9384 5.87487 80.5544 3.95487 78.5384 1.89087C77.4824 0.786874 75.8504 0.210873 73.9784 0.210873C72.1064 0.210873 70.4744 0.786874 69.4184 1.89087C67.4024 3.95487 67.0184 5.87487 67.0184 17.6829C67.0184 29.4909 67.4024 31.4109 69.4184 33.4749C70.4744 34.5789 72.1064 35.1549 73.9784 35.1549C75.8504 35.1549 77.4824 34.5789 78.5384 33.4749C80.5544 31.4109 80.9384 29.4909 80.9384 17.6829ZM79.0184 17.6829C79.0184 29.0589 78.7304 30.5469 77.1944 32.2269C76.4744 32.9949 75.3704 33.4269 73.9784 33.4269C72.5864 33.4269 71.4824 32.9949 70.7624 32.2269C69.2264 30.5469 68.9384 29.0589 68.9384 17.6829C68.9384 6.30687 69.2264 4.81887 70.7624 3.13887C71.4824 2.37087 72.5864 1.93887 73.9784 1.93887C75.3704 1.93887 76.4744 2.37087 77.1944 3.13887C78.7304 4.81887 79.0184 6.30687 79.0184 17.6829ZM147.766 28.1469V0.594873H145.846V28.3389C145.846 31.4589 143.83 33.4269 141.286 33.4269C138.742 33.4269 136.726 31.4589 136.726 28.3389V0.594873H134.806V28.1469C134.806 30.4989 135.526 32.2269 136.726 33.3789C137.926 34.5789 139.606 35.1549 141.286 35.1549C142.966 35.1549 144.646 34.5789 145.846 33.3789C147.046 32.2269 147.766 30.4989 147.766 28.1469ZM213.355 34.7709V33.0429H204.235V0.594873H202.315V34.7709H213.355ZM325.407 34.7709V0.594873H323.487V34.7709H325.407ZM394.412 34.7709V0.594873H392.492V29.4909L382.412 0.594873H380.3V34.7709H382.22V5.87487L392.3 34.7709H394.412ZM461.779 26.0349C461.779 21.3789 461.155 18.5469 457.603 17.1069L454.099 15.6669C450.691 14.2749 450.115 12.9309 450.115 8.61087C450.115 6.30687 450.595 4.33887 451.795 3.18687C452.563 2.46687 453.571 2.03487 455.011 2.03487C456.547 2.03487 457.651 2.51487 458.419 3.37887C459.523 4.62687 459.859 6.06687 459.859 8.41887H461.779C461.779 5.58687 461.491 3.76287 459.859 2.08287C458.707 0.930872 457.075 0.306871 455.059 0.306871C453.043 0.306871 451.507 0.930872 450.355 2.08287C448.915 3.52287 448.195 5.77887 448.195 8.65887C448.195 13.7469 449.107 15.7149 452.611 17.1549L456.115 18.5949C459.139 19.8429 459.859 21.5709 459.859 26.0829C459.859 29.0589 459.619 30.7389 458.323 32.0349C457.603 32.8029 456.499 33.2829 454.819 33.2829C453.283 33.2829 452.131 32.8029 451.363 32.0349C450.211 30.8829 449.875 29.3949 449.875 26.4669H447.955C447.955 30.2589 448.435 31.8429 449.923 33.3789C451.123 34.5789 452.755 35.0589 454.819 35.0589C457.027 35.0589 458.563 34.4829 459.667 33.3789C461.155 31.8429 461.779 29.6829 461.779 26.0349ZM517.501 34.7709V0.594873H515.581V34.7709H517.501ZM585.69 17.6829C585.69 6.01887 585.354 4.29087 583.338 2.22687C582.282 1.17087 580.698 0.594873 578.826 0.594873H572.394V34.7709H578.826C580.698 34.7709 582.282 34.1949 583.338 33.1389C585.354 31.0749 585.69 29.3469 585.69 17.6829ZM583.77 17.6829C583.77 28.8189 583.53 30.3069 581.898 31.9389C581.178 32.6589 580.074 33.0429 578.682 33.0429H574.314V2.32287H578.682C580.074 2.32287 581.178 2.70687 581.898 3.42687C583.53 5.05887 583.77 6.54687 583.77 17.6829ZM650.98 34.7709V33.0429H641.86V18.5469H649.732V16.8189H641.86V2.32287H650.98V0.594873H639.94V34.7709H650.98Z" fill="white"/>
</svg>
